HIERARCHY
ROOT root
{
	OFFSET	0	13.1	24.9
	CHANNELS 6  Xposition Yposition Zposition Xrotation Yrotation Zrotation
	JOINT spine_1
	{
		OFFSET	0	9.99999	0
		CHANNELS 3  Xrotation Yrotation Zrotation
		JOINT spine_2
		{
			OFFSET	0	112	-10
			CHANNELS 3  Xrotation Yrotation Zrotation
			JOINT spine_3
			{
				OFFSET	0	206.5	19.3
				CHANNELS 3  Xrotation Yrotation Zrotation
				JOINT spine_4
				{
					OFFSET	0	110.4	14.6
					CHANNELS 3  Xrotation Yrotation Zrotation
					JOINT neck_1
					{
						OFFSET	0	71.8	-50.3
						CHANNELS 3  Xrotation Yrotation Zrotation
						JOINT neck_2
						{
							OFFSET	0	86.2	-25.8
							CHANNELS 3  Xrotation Yrotation Zrotation
							JOINT head_ee
							{
								OFFSET	0	179.8	-8.7
								CHANNELS 3  Xrotation Yrotation Zrotation
								End Site
								{
									OFFSET	1	0	0
								}
							}
						}
					}
					JOINT left_clavicle
					{
						OFFSET	-43.2	22.4	-70.8
						CHANNELS 3  Xrotation Yrotation Zrotation
						JOINT left_shoulder
						{
							OFFSET	-93.9	-5.79999	48.7
							CHANNELS 3  Xrotation Yrotation Zrotation
							JOINT left_elbow
							{
								OFFSET	-291.4	-30.8	15.2
								CHANNELS 3  Xrotation Yrotation Zrotation
								JOINT left_lowarm_twist
								{
									OFFSET	-110.7	-3.89999	13.6
									CHANNELS 3  Xrotation Yrotation Zrotation
									JOINT left_hand
									{
										OFFSET	-110.7	-3.89999	13.6
										CHANNELS 3  Xrotation Yrotation Zrotation
										JOINT left_ee
										{
											OFFSET	-80.8	-5.10001	12.1
											CHANNELS 3  Xrotation Yrotation Zrotation
											End Site
											{
												OFFSET	1	0	0
											}
										}
									}
								}
							}
						}
					}
					JOINT right_clavicle
					{
						OFFSET	43.2	22.4	-70.8
						CHANNELS 3  Xrotation Yrotation Zrotation
						JOINT right_shoulder
						{
							OFFSET	93.9	-5.79999	48.7
							CHANNELS 3  Xrotation Yrotation Zrotation
							JOINT right_elbow
							{
								OFFSET	291.4	-30.8	15.2
								CHANNELS 3  Xrotation Yrotation Zrotation
								JOINT right_lowarm_twist
								{
									OFFSET	110.7	-3.89999	13.6
									CHANNELS 3  Xrotation Yrotation Zrotation
									JOINT right_hand
									{
										OFFSET	110.7	-3.89999	13.6
										CHANNELS 3  Xrotation Yrotation Zrotation
										JOINT right_ee
										{
											OFFSET	80.8	-5.10001	12.1
											CHANNELS 3  Xrotation Yrotation Zrotation
											End Site
											{
												OFFSET	1	0	0
											}
										}
									}
								}
							}
						}
					}
				}
			}
		}
	}
	JOINT left_hip
	{
		OFFSET	-82.8	-127.5	0.300001
		CHANNELS 3  Xrotation Yrotation Zrotation
		JOINT left_knee
		{
			OFFSET	-28.2	-396.7	2.2
			CHANNELS 3  Xrotation Yrotation Zrotation
			JOINT left_ankle
			{
				OFFSET	-11.7	-411.3	35.4
				CHANNELS 3  Xrotation Yrotation Zrotation
				JOINT left_toes
				{
					OFFSET	0	-60	-88.6
					CHANNELS 3  Xrotation Yrotation Zrotation
					JOINT left_foot_ee
					{
						OFFSET	-22.5	-16.5	-42.2
						CHANNELS 3  Xrotation Yrotation Zrotation
						End Site
						{
							OFFSET	1	0	0
						}
					}
				}
			}
		}
	}
	JOINT right_hip
	{
		OFFSET	82.8	-127.5	0.300001
		CHANNELS 3  Xrotation Yrotation Zrotation
		JOINT right_knee
		{
			OFFSET	28.2	-396.7	2.2
			CHANNELS 3  Xrotation Yrotation Zrotation
			JOINT right_ankle
			{
				OFFSET	11.7	-411.3	35.4
				CHANNELS 3  Xrotation Yrotation Zrotation
				JOINT right_toes
				{
					OFFSET	0	-60	-88.6
					CHANNELS 3  Xrotation Yrotation Zrotation
					JOINT right_foot_ee
					{
						OFFSET	22.5	-16.5	-42.2
						CHANNELS 3  Xrotation Yrotation Zrotation
						End Site
						{
							OFFSET	1	0	0
						}
					}
				}
			}
		}
	}
}
MOTION
Frames: 13
Frame Time: 0.02
235.99 727.459 -1752.07 163.5 -81.1296 169.062 -0.815891 -0.470314 -1.63616 -0.814476 -0.365262 -1.66276 -0.802567 0.0161658 -1.70232 -0.806522 -0.252848 -1.68352 -2.16319 -13.3341 -4.6729 -1.93167 -20.4664 -6.64591 -0.0 0.0 -0.0 12.0808 -21.2749 24.0233 -25.3186 -43.0124 55.9035 0.710769 -19.3969 0.121476 16.4991 0.283414 -2.08129 1.09729 -14.7385 1.10251 -0.0 0.0 -0.0 6.89465 -23.1042 -12.3276 -91.6384 55.8714 -23.1772 0.642413 17.6529 -0.0997552 -27.9138 1.76681 -3.06466 3.49013 -2.81348 -25.1455 0.0 0.0 0.0 -4.48912 -14.7499 -0.938578 -2.09308 0.0805044 0.31111 -24.6792 30.0031 3.98614 2.40312 -0.0 -0.0 -0.0 0.0 -0.0 -0.0423831 -36.5817 0.113747 -13.1315 -0.314229 -1.98631 32.8277 -27.1172 4.48699 28.0975 -0.0 -0.0 0.0 0.0 0.0 
240.747 726.683 -1753.81 165.748 -81.2688 171.186 -1.0038 -0.519785 -1.71691 -1.00225 -0.409498 -1.74649 -0.988211 -0.00241136 -1.79384 -0.992588 -0.28564 -1.77096 -2.46083 -16.2414 -3.99788 -2.11509 -26.373 -6.35151 -0.0 0.0 -0.0 12.0514 -23.2738 23.7815 -24.0161 -43.358 56.2475 0.605624 -16.6998 0.0888905 17.3467 0.281676 -2.18954 1.22276 -14.3106 2.13275 -0.0 0.0 -0.0 6.97681 -23.0762 -12.4487 -91.8637 55.9906 -22.5811 0.636354 17.4966 -0.0979259 -28.3637 1.80697 -3.10606 3.81245 5.44325 -24.1023 0.0 0.0 0.0 -4.78762 -14.4397 -1.4561 -1.97325 0.0762035 0.293224 -18.2228 29.5695 2.92934 8.5384 -0.0 -0.0 -0.0 0.0 -0.0 0.0532523 -26.1157 0.0763092 -16.312 -0.32132 -2.47418 33.0854 -26.2984 4.49143 22.5518 -0.0 -0.0 0.0 0.0 0.0 
237.119 725.377 -1755.79 157.743 -81.0306 163.385 -1.31133 -0.580548 -1.68775 -1.30987 -0.471992 -1.72125 -1.29398 -0.0595127 -1.78378 -1.29826 -0.340438 -1.75202 -3.38935 -12.247 -3.74489 -3.23279 -19.4509 -5.69784 -0.0 0.0 -0.0 11.7291 -26.6025 22.6949 -21.1966 -43.8609 56.1012 0.359645 -10.1019 0.0317873 18.5116 0.276676 -2.33824 1.58113 -13.244 5.01594 -0.0 0.0 -0.0 7.1814 -23.1066 -12.7414 -92.6091 56.1163 -21.2277 0.627617 17.2707 -0.0953152 -28.9857 1.86303 -3.16278 3.02026 -6.03456 -22.927 0.0 0.0 0.0 -5.88304 -13.9648 -2.7133 -1.29106 0.0510028 0.191563 -24.793 30.1282 4.00797 1.93412 -0.0 -0.0 -0.0 0.0 -0.0 5.35165 -34.7972 3.85626 -23.2095 -0.243736 -3.52905 33.8324 -25.0816 4.53888 30.923 -0.0 -0.0 0.0 0.0 0.0 
234.197 727.915 -1751.57 156.622 -81.155 162.847 -1.79008 -0.60997 -1.64775 -1.78871 -0.503898 -1.68321 -1.77202 -0.0847521 -1.75495 -1.77613 -0.360809 -1.71956 -4.42289 -11.8097 -3.77702 -4.30866 -18.8084 -5.80234 -0.0 0.0 -0.0 11.3377 -27.5211 21.6993 -19.5529 -44.066 56.7206 0.363451 -10.2066 0.0324583 19.4301 0.270603 -2.45539 1.80767 -13.1543 6.58713 -0.0 0.0 -0.0 7.38709 -23.2778 -13.0211 -92.4375 56.732 -20.895 0.628068 17.2824 -0.0954493 -30.1188 1.96673 -3.26455 2.68372 -7.24492 -20.9749 0.0 0.0 0.0 -6.5737 -13.2355 -2.77156 -0.580966 0.0234856 0.0860621 -24.5912 29.7217 3.96436 2.09092 -0.0 -0.0 -0.0 0.0 -0.0 5.70904 -32.5876 3.15481 -25.9217 -0.178547 -3.94012 35.0795 -22.9913 4.61654 32.7141 -0.0 -0.0 0.0 0.0 0.0 
236.267 724.34 -1747.96 151.969 -80.8842 158.211 -2.08693 -0.594257 -1.53429 -2.08575 -0.495435 -1.56898 -2.07041 -0.0954214 -1.64256 -2.074 -0.353602 -1.60689 -4.08923 -11.785 -3.19178 -3.96761 -19.1512 -5.15486 -0.0 0.0 -0.0 10.7029 -26.9645 20.3336 -19.5104 -44.2511 55.099 0.423495 -11.8483 0.0439446 19.9597 0.266247 -2.5229 2.22445 -14.5892 8.76473 -0.0 0.0 -0.0 7.58766 -23.5034 -13.2857 -92.143 57.3192 -20.3665 0.629378 17.3163 -0.095839 -31.2508 2.07233 -3.36416 2.37019 -8.16414 -19.12 0.0 0.0 0.0 -7.63074 -13.1747 -2.90016 -0.67557 0.0272271 0.100098 -24.7033 29.7362 3.98282 2.5111 -0.0 -0.0 -0.0 0.0 -0.0 6.07624 -28.6173 1.65802 -26.1544 -0.172048 -3.97524 36.9853 -21.5106 4.77469 34.0197 -0.0 -0.0 0.0 0.0 0.0 
229.449 729.12 -1742.96 148.417 -80.5057 154.497 -2.42906 -0.569485 -1.41797 -2.42807 -0.478111 -1.45133 -2.41431 -0.0983293 -1.52487 -2.41739 -0.337893 -1.49022 -2.83473 -11.9933 -2.09504 -2.65881 -20.1719 -3.87378 -0.0 0.0 -0.0 10.1595 -26.0887 19.2113 -19.1873 -44.5604 54.4572 0.501583 -13.9539 0.061382 20.7128 0.258979 -2.61882 2.70734 -16.0968 11.3453 -0.0 0.0 -0.0 7.93378 -23.9089 -13.7354 -91.6587 58.2596 -19.7 0.632447 17.3957 -0.0967545 -32.8444 2.22428 -3.50083 1.94782 -8.92387 -16.5075 0.0 0.0 0.0 -7.88955 -13.2146 -3.2814 -0.791957 0.0317988 0.117375 -24.9586 29.7549 4.02449 3.1042 -0.0 -0.0 -0.0 0.0 -0.0 5.25207 -22.7163 0.240587 -26.3812 -0.165578 -4.00944 38.5889 -21.3692 4.92835 35.4767 -0.0 -0.0 0.0 0.0 0.0 
236.58 726.383 -1744.01 151.545 -80.6565 156.743 -2.54105 -0.528552 -1.20809 -2.54035 -0.450613 -1.23927 -2.52934 -0.122322 -1.31295 -2.5316 -0.328126 -1.27717 -1.02099 -12.3254 -0.654935 -0.727607 -21.6253 -2.11687 -0.0 0.0 -0.0 9.89165 -25.8083 18.6419 -18.6376 -44.6257 53.1155 0.595823 -16.4443 0.0860952 21.8375 0.24578 -2.76187 3.01016 -16.4677 13.2353 -0.0 0.0 -0.0 8.04461 -24.1082 -13.8689 -91.1394 59.0453 -18.425 0.6289 17.3039 -0.0956967 -34.1195 2.34858 -3.60714 1.40311 -9.30663 -13.0042 0.0 0.0 0.0 -7.59329 -13.0674 -2.09899 -0.998604 0.0398283 0.148071 -24.9125 29.9709 4.02296 4.13476 -0.0 -0.0 -0.0 0.0 -0.0 3.46308 -13.608 -1.22574 -23.3724 -0.240371 -3.55382 41.0865 -21.7199 5.17176 37.5583 -0.0 -0.0 0.0 0.0 0.0 
247.394 729.977 -1754.53 154.382 -80.4019 157.05 -2.76416 -0.42457 -0.753311 -2.76393 -0.375776 -0.778799 -2.75827 -0.163046 -0.849202 -2.75916 -0.295111 -0.812798 1.58936 -12.8703 1.15255 2.13055 -23.6696 0.248639 -0.0 0.0 -0.0 9.55479 -25.1521 17.9577 -18.2094 -44.4991 54.2189 0.720179 -19.6342 0.124619 23.2452 0.225304 -2.94052 3.31795 -16.7277 15.2227 -0.0 0.0 -0.0 8.00699 -24.2999 -13.79 -89.8306 60.0214 -17.3272 0.637697 17.5312 -0.09833 -35.9362 2.52971 -3.75378 0.68792 -9.89027 -8.53774 0.0 0.0 0.0 -6.61458 -13.0715 -0.538675 -1.29442 0.0511295 0.192062 -24.7226 29.5853 3.9819 5.54431 -0.0 -0.0 -0.0 0.0 -0.0 1.72372 -0.512782 -1.15447 -19.0563 -0.305674 -2.89491 43.0226 -24.1782 5.42046 40.5318 -0.0 -0.0 0.0 0.0 0.0 
244.592 728.456 -1758.6 161.783 -79.9513 163.19 -2.98745 -0.164694 -0.446239 -2.98735 -0.135965 -0.455814 -2.98609 -0.0123753 -0.475499 -2.9864 -0.0873154 -0.467577 4.4671 -13.1183 2.73531 5.32235 -24.9901 2.56938 -0.0 0.0 -0.0 9.39768 -24.0622 17.7147 -17.995 -44.1453 57.6044 0.800398 -21.6279 0.152888 22.3596 0.238698 -2.82818 3.1884 -17.1685 14.114 -0.0 0.0 -0.0 8.35153 -24.6068 -14.2395 -87.9154 61.024 -15.7494 0.616322 16.978 -0.0919897 -38.233 2.76523 -3.93088 0.070222 -7.48819 -3.57467 0.0 0.0 0.0 -5.15862 -12.995 1.81829 -1.71583 0.0668363 0.254829 -24.7986 30.9311 4.03154 8.23976 -0.0 -0.0 -0.0 0.0 -0.0 -1.71108 12.5011 -0.896765 -6.23026 -0.205923 -0.933519 42.6586 -25.9908 5.45128 39.7847 -0.0 -0.0 0.0 0.0 0.0 
253.541 728.779 -1760.71 163.935 -80.3057 164.746 -3.12152 -0.159072 -0.334577 -3.12147 -0.137459 -0.344021 -3.12054 -0.0421115 -0.368065 -3.12071 -0.0997117 -0.356795 7.94195 -13.499 2.72092 9.03039 -25.0333 3.17807 -0.0 0.0 -0.0 9.28753 -24.1027 17.4655 -16.833 -43.3528 57.5085 0.806097 -21.7675 0.154995 22.77 0.232706 -2.88027 3.15313 -16.5436 14.1789 -0.0 0.0 -0.0 8.35463 -24.7685 -14.2208 -86.6411 61.3097 -14.0321 0.60567 16.701 -0.088904 -40.2903 2.98209 -4.08143 -0.570916 -6.75968 0.90143 0.0 0.0 0.0 -4.82122 -12.313 2.12298 -1.24324 0.0491909 0.184448 -25.3951 31.5956 4.14852 9.43799 -0.0 -0.0 -0.0 0.0 -0.0 -1.47398 21.7933 -0.962077 -6.5456 -0.213632 -0.981296 42.5881 -26.4989 5.46381 39.8423 -0.0 -0.0 0.0 0.0 0.0 
260.273 726.882 -1760.48 171.256 -80.2066 171.941 -3.00858 -0.143838 -0.24751 -3.00856 -0.127797 -0.256161 -3.00792 -0.056455 -0.280648 -3.00802 -0.100069 -0.26821 12.8325 -13.5173 2.32506 14.0579 -23.7391 3.39293 -0.0 0.0 -0.0 9.18177 -24.1356 17.2271 -14.4481 -41.7569 55.446 0.81475 -21.979 0.158219 23.3557 0.223512 -2.95452 3.27816 -17.8392 14.3963 -0.0 0.0 -0.0 8.39446 -25.0331 -14.239 -84.7866 61.8525 -11.6714 0.5931 16.3732 -0.0853261 -43.1582 3.29313 -4.27815 -1.07378 -5.12334 4.90981 0.0 0.0 0.0 -4.569 -11.3539 2.59313 -1.34116 0.0528946 0.199018 -25.2039 31.1627 4.10426 11.2447 -0.0 -0.0 -0.0 0.0 -0.0 -1.08496 29.3839 -0.915161 -6.96798 -0.223547 -1.04536 42.9844 -25.1643 5.45092 40.1908 -0.0 -0.0 0.0 0.0 0.0 
277.042 718.513 -1762.84 176.764 -79.1569 177.287 -2.9717 -0.174192 -0.267042 -2.97167 -0.156846 -0.277585 -2.97084 -0.079101 -0.308864 -2.97095 -0.126887 -0.292495 15.0412 -14.1778 -0.483073 15.9818 -21.6649 -0.084056 -0.0 0.0 -0.0 9.2174 -24.1383 17.3061 -12.0401 -39.2751 55.0049 0.845344 -22.7217 0.169854 24.3183 0.206752 -3.07633 3.54762 -19.7142 15.2864 -0.0 0.0 -0.0 8.09299 -25.0975 -13.8053 -82.6336 63.9583 -9.82453 0.583813 16.1302 -0.082727 -47.1894 3.74612 -4.52789 -1.56979 -3.89184 8.75639 0.0 0.0 0.0 -4.34389 -9.97555 3.08936 -1.49366 0.0586134 0.221723 -22.7053 30.357 3.67554 12.0867 -0.0 -0.0 -0.0 0.0 -0.0 1.08862 35.7415 -0.522082 -7.51441 -0.235671 -1.12833 42.4429 -21.0188 5.27441 40.1269 -0.0 -0.0 0.0 0.0 0.0 
283.416 717.671 -1759.66 178.558 -79.7907 178.605 -2.96089 -0.148439 -0.0510417 -2.9609 -0.144891 -0.0603838 -2.96075 -0.124169 -0.0960292 -2.96073 -0.137777 -0.0752138 15.6701 -15.7501 -5.46588 16.215 -19.2016 -6.64841 -0.0 0.0 -0.0 9.38953 -24.0858 17.6943 -10.5913 -38.5605 54.6183 0.889777 -23.7861 0.187397 25.5601 0.182111 -3.23304 4.00691 -23.0 16.6515 -0.0 0.0 -0.0 7.96897 -25.0001 -13.6442 -82.8948 63.6182 -9.38271 0.575386 15.9093 -0.0804015 -50.5415 4.13538 -4.71093 -2.23603 -1.25767 14.5096 0.0 0.0 0.0 -4.41154 -9.59533 2.85078 -1.73865 0.0676735 0.25823 -20.1645 29.1247 3.23497 12.2109 -0.0 -0.0 -0.0 0.0 -0.0 4.97981 41.6087 -0.378039 -7.20376 -0.228876 -1.08115 38.5002 -20.4149 4.89695 39.7083 -0.0 -0.0 0.0 0.0 0.0 
